<svg width="105" height="36" viewBox="0 0 105 36" fill="none" xmlns="http://www.w3.org/2000/svg">
<path d="M1.21799 2.09202L0.995235 1.97852H0.995235L1.21799 2.09202ZM2.09202 1.21799L1.97852 0.995235V0.995235L2.09202 1.21799ZM2.09202 34.782L2.20552 34.5593H2.20552L2.09202 34.782ZM1.21799 33.908L0.995235 34.0215H0.995235L1.21799 33.908ZM0.995235 1.97852C0.865292 2.23355 0.80659 2.51708 0.778079 2.86605C0.749806 3.21209 0.75 3.64407 0.75 4.2H1.25C1.25 3.63582 1.25019 3.22772 1.27642 2.90676C1.3024 2.58872 1.3527 2.37831 1.44074 2.20552L0.995235 1.97852ZM1.97852 0.995235C1.55516 1.21095 1.21095 1.55516 0.995235 1.97852L1.44074 2.20552C1.60852 1.87623 1.87623 1.60852 2.20552 1.44074L1.97852 0.995235ZM4.2 0.75C3.64407 0.75 3.21209 0.749806 2.86605 0.778079C2.51708 0.80659 2.23355 0.865292 1.97852 0.995235L2.20552 1.44074C2.37831 1.3527 2.58872 1.3024 2.90676 1.27642C3.22772 1.25019 3.63582 1.25 4.2 1.25V0.75ZM35.3333 0.75H4.2V1.25H35.3333V0.75ZM35.3333 1.25H69.6667V0.75H35.3333V1.25ZM102 0.75H69.6667V1.25H102V0.75ZM104.25 3C104.25 1.75736 103.243 0.75 102 0.75V1.25C102.966 1.25 103.75 2.0335 103.75 3H104.25ZM104.25 33V3H103.75V33H104.25ZM102 35.25C103.243 35.25 104.25 34.2426 104.25 33H103.75C103.75 33.9665 102.966 34.75 102 34.75V35.25ZM69.6667 35.25H102V34.75H69.6667V35.25ZM69.6667 34.75H35.3333V35.25H69.6667V34.75ZM4.2 35.25H35.3333V34.75H4.2V35.25ZM1.97852 35.0048C2.23355 35.1347 2.51708 35.1934 2.86605 35.2219C3.21209 35.2502 3.64407 35.25 4.2 35.25V34.75C3.63582 34.75 3.22772 34.7498 2.90676 34.7236C2.58872 34.6976 2.37831 34.6473 2.20552 34.5593L1.97852 35.0048ZM0.995235 34.0215C1.21095 34.4448 1.55516 34.7891 1.97852 35.0048L2.20552 34.5593C1.87623 34.3915 1.60852 34.1238 1.44074 33.7945L0.995235 34.0215ZM0.75 31.8C0.75 32.3559 0.749806 32.7879 0.778079 33.134C0.80659 33.4829 0.865292 33.7664 0.995235 34.0215L1.44074 33.7945C1.3527 33.6217 1.3024 33.4113 1.27642 33.0932C1.25019 32.7723 1.25 32.3642 1.25 31.8H0.75ZM0.75 4.2V31.8H1.25V4.2H0.75Z" fill="#0B4A72"/>
</svg>
