<svg width="149" height="32" viewBox="0 0 149 32" fill="none" xmlns="http://www.w3.org/2000/svg">
<path d="M93 10.3358C93 22.0052 75.8561 31.4508 75.126 31.8408C74.9336 31.9453 74.7185 32 74.5 32C74.2815 32 74.0664 31.9453 73.874 31.8408C73.1439 31.4508 56 22.0052 56 10.3358C56.0031 7.5955 57.083 4.96835 59.0029 3.03069C60.9228 1.09302 63.5259 0.00308862 66.2411 0C69.652 0 72.6384 1.48035 74.5 3.98261C76.3616 1.48035 79.348 0 82.7589 0C85.4741 0.00308862 88.0772 1.09302 89.9971 3.03069C91.917 4.96835 92.9969 7.5955 93 10.3358Z" fill="#0B4A72"/>
<path d="M142.6 25.6C140.824 25.6 139.4 27.024 139.4 28.8C139.4 29.6487 139.737 30.4626 140.337 31.0627C140.937 31.6629 141.751 32 142.6 32C143.449 32 144.263 31.6629 144.863 31.0627C145.463 30.4626 145.8 29.6487 145.8 28.8C145.8 27.9513 145.463 27.1374 144.863 26.5373C144.263 25.9371 143.449 25.6 142.6 25.6ZM117 0V3.2H120.2L125.96 15.344L123.784 19.264C123.544 19.712 123.4 20.24 123.4 20.8C123.4 21.6487 123.737 22.4626 124.337 23.0627C124.937 23.6629 125.751 24 126.6 24H145.8V20.8H127.272C127.166 20.8 127.064 20.7579 126.989 20.6828C126.914 20.6078 126.872 20.5061 126.872 20.4C126.872 20.32 126.888 20.256 126.92 20.208L128.36 17.6H140.28C141.48 17.6 142.536 16.928 143.08 15.952L148.808 5.6C148.92 5.344 149 5.072 149 4.8C149 4.37565 148.831 3.96869 148.531 3.66863C148.231 3.36857 147.824 3.2 147.4 3.2H123.736L122.232 0M126.6 25.6C124.824 25.6 123.4 27.024 123.4 28.8C123.4 29.6487 123.737 30.4626 124.337 31.0627C124.937 31.6629 125.751 32 126.6 32C127.449 32 128.263 31.6629 128.863 31.0627C129.463 30.4626 129.8 29.6487 129.8 28.8C129.8 27.9513 129.463 27.1374 128.863 26.5373C128.263 25.9371 127.449 25.6 126.6 25.6Z" fill="#0B4A72"/>
</svg>
