<svg width="35" height="30" viewBox="0 0 35 30" fill="none" xmlns="http://www.w3.org/2000/svg">
<path d="M34.1142 16.3692C34.1142 19.9843 32.6781 23.4514 30.1219 26.0077C27.5656 28.564 24.0985 30.0001 20.4834 30.0001C16.8682 30.0001 13.4012 28.564 10.8449 26.0077C8.28861 23.4514 6.85251 19.9843 6.85251 16.3692C6.85251 12.7541 8.28861 9.28701 10.8449 6.73073C13.4012 4.17445 16.8682 2.73834 20.4834 2.73834C24.0985 2.73834 27.5656 4.17445 30.1219 6.73073C32.6781 9.28701 34.1142 12.7541 34.1142 16.3692Z" fill="#E98316"/>
<path fill-rule="evenodd" clip-rule="evenodd" d="M20.4834 26.1055C23.0656 26.1055 25.5421 25.0798 27.368 23.2538C29.1939 21.4279 30.2197 18.9514 30.2197 16.3692C30.2197 13.787 29.1939 11.3105 27.368 9.48458C25.5421 7.65866 23.0656 6.63288 20.4834 6.63288C17.9011 6.63288 15.4247 7.65866 13.5987 9.48458C11.7728 11.3105 10.747 13.787 10.747 16.3692C10.747 18.9514 11.7728 21.4279 13.5987 23.2538C15.4247 25.0798 17.9011 26.1055 20.4834 26.1055ZM20.4834 30.0001C22.2734 30.0001 24.0459 29.6475 25.6997 28.9625C27.3535 28.2775 28.8561 27.2734 30.1219 26.0077C31.3876 24.7419 32.3916 23.2393 33.0767 21.5855C33.7617 19.9317 34.1142 18.1592 34.1142 16.3692C34.1142 14.5792 33.7617 12.8067 33.0767 11.1529C32.3916 9.49913 31.3876 7.99647 30.1219 6.73073C28.8561 5.46499 27.3535 4.46094 25.6997 3.77593C24.0459 3.09091 22.2734 2.73834 20.4834 2.73834C16.8682 2.73834 13.4012 4.17445 10.8449 6.73073C8.28861 9.28701 6.85251 12.7541 6.85251 16.3692C6.85251 19.9843 8.28861 23.4514 10.8449 26.0077C13.4012 28.564 16.8682 30.0001 20.4834 30.0001Z" fill="#E98316"/>
<path fill-rule="evenodd" clip-rule="evenodd" d="M9.00228 5.56181C7.65628 6.88799 6.62737 8.50121 5.99243 10.2809C5.3575 12.0606 5.13295 13.9608 5.33558 15.8395C5.35444 16.0918 5.27431 16.3416 5.11216 16.5359C4.95001 16.7302 4.71859 16.8537 4.46693 16.8803C4.21528 16.9069 3.96316 16.8344 3.76399 16.6783C3.56483 16.5222 3.43428 16.2947 3.4 16.0439C3.16628 13.8741 3.42581 11.6795 4.15919 9.62399C4.89257 7.5685 6.08085 5.70526 7.6353 4.17341C13.3544 -1.46783 22.5806 -1.3763 28.2413 4.36424C33.902 10.1028 33.865 19.329 28.1439 24.9702C25.4958 27.5864 21.9407 29.0804 18.2187 29.1413C16.8115 29.1663 15.4081 28.9886 14.0515 28.6135C13.8026 28.5449 13.5912 28.3801 13.4637 28.1555C13.3363 27.9309 13.3033 27.6649 13.3719 27.416C13.4406 27.1671 13.6054 26.9556 13.83 26.8282C14.0546 26.7007 14.3206 26.6677 14.5695 26.7364C15.746 27.0618 16.9632 27.2159 18.1836 27.194C21.4062 27.1425 24.4845 25.8492 26.7769 23.5838C31.7249 18.7039 31.7658 10.7123 26.8548 5.73122C21.9438 0.750111 13.9503 0.681956 9.00228 5.56181Z" fill="white"/>
<path fill-rule="evenodd" clip-rule="evenodd" d="M5.08821 17.0757C5.00306 17.1711 4.89995 17.2488 4.78477 17.3043C4.6696 17.3599 4.54462 17.3922 4.41695 17.3994C4.28929 17.4066 4.16146 17.3887 4.04075 17.3465C3.92004 17.3043 3.80882 17.2388 3.71344 17.1536L0.364139 14.1743C0.261179 14.0917 0.176104 13.9889 0.114089 13.8724C0.0520732 13.7558 0.0144121 13.6279 0.00339539 13.4963C-0.00762128 13.3647 0.00823659 13.2323 0.050005 13.107C0.0917734 12.9818 0.15858 12.8663 0.246361 12.7677C0.334143 12.6691 0.441066 12.5893 0.560629 12.5333C0.680192 12.4773 0.809896 12.4462 0.941856 12.4419C1.07382 12.4376 1.20527 12.4602 1.32824 12.5083C1.4512 12.5564 1.56309 12.629 1.65712 12.7216L5.00642 15.701C5.10208 15.7858 5.18008 15.8887 5.23597 16.0038C5.29185 16.1188 5.32452 16.2437 5.33212 16.3714C5.33971 16.4991 5.32208 16.627 5.28023 16.7478C5.23838 16.8687 5.17313 16.9801 5.08821 17.0757Z" fill="white"/>
<path fill-rule="evenodd" clip-rule="evenodd" d="M3.58105 16.9534C3.65777 17.0557 3.75388 17.1418 3.8639 17.207C3.97392 17.2721 4.09569 17.315 4.22227 17.3331C4.34884 17.3511 4.47774 17.3441 4.6016 17.3124C4.72546 17.2806 4.84185 17.2248 4.94414 17.1481L8.83867 14.2272C9.04525 14.0723 9.18182 13.8416 9.21834 13.586C9.25486 13.3304 9.18833 13.0707 9.0334 12.8641C8.87846 12.6575 8.64781 12.521 8.39218 12.4845C8.13656 12.4479 7.87689 12.5145 7.67031 12.6694L3.77578 15.5903C3.5692 15.7452 3.43263 15.9759 3.39611 16.2315C3.35959 16.4871 3.42612 16.7468 3.58105 16.9534ZM17.5624 7.60651C17.8206 7.60651 18.0683 7.70909 18.2509 7.89168C18.4335 8.07427 18.5361 8.32192 18.5361 8.58014V15.3956C18.5361 15.6538 18.4335 15.9014 18.2509 16.084C18.0683 16.2666 17.8206 16.3692 17.5624 16.3692C17.3042 16.3692 17.0566 16.2666 16.874 16.084C16.6914 15.9014 16.5888 15.6538 16.5888 15.3956V8.58014C16.5888 8.32192 16.6914 8.07427 16.874 7.89168C17.0566 7.70909 17.3042 7.60651 17.5624 7.60651Z" fill="white"/>
<path fill-rule="evenodd" clip-rule="evenodd" d="M24.3779 15.3956C24.3779 15.6538 24.2753 15.9014 24.0927 16.084C23.9102 16.2666 23.6625 16.3692 23.4043 16.3692H17.5625C17.3043 16.3692 17.0566 16.2666 16.874 16.084C16.6914 15.9014 16.5889 15.6538 16.5889 15.3956C16.5889 15.1373 16.6914 14.8897 16.874 14.7071C17.0566 14.5245 17.3043 14.4219 17.5625 14.4219H23.4043C23.6625 14.4219 23.9102 14.5245 24.0927 14.7071C24.2753 14.8897 24.3779 15.1373 24.3779 15.3956Z" fill="white"/>
</svg>
