<svg width="38" height="34" viewBox="0 0 38 34" fill="none" xmlns="http://www.w3.org/2000/svg">
<path d="M15.3333 22.8333L20.3333 24.5C20.3333 24.5 32.8333 22 34.5 22C36.1667 22 36.1667 23.6667 34.5 25.3333C32.8333 27 27 32 22 32C17 32 13.6667 29.5 10.3333 29.5C7 29.5 2 29.5 2 29.5" stroke="white" stroke-width="3" stroke-linecap="round" stroke-linejoin="round"/>
<path d="M2 19.5C3.66667 17.8333 7 15.3333 10.3333 15.3333C13.6667 15.3333 21.5833 18.6666 22.8333 20.3333C24.0833 22 20.3333 24.5 20.3333 24.5" stroke="white" stroke-width="3" stroke-linecap="round" stroke-linejoin="round"/>
<path d="M12 10.3333V3.66667C12 2.74619 12.7462 2 13.6667 2H33.6667C34.5872 2 35.3333 2.74619 35.3333 3.66667V17" stroke="white" stroke-width="3" stroke-linecap="round" stroke-linejoin="round"/>
<path d="M27.8333 2H19.5V9.5H27.8333V2Z" fill="#E98316" stroke="white" stroke-width="3" stroke-linecap="round" stroke-linejoin="round"/>
</svg>
