<svg width="39" height="30" viewBox="0 0 39 30" fill="none" xmlns="http://www.w3.org/2000/svg">
<path d="M2.72701 13.6349H19.0891V16.3619H2.72701V13.6349ZM0 6.81738H13.635V9.54439H0V6.81738Z" fill="#E98316"/>
<path d="M38.0677 14.4613L33.9772 4.9168C33.8722 4.67147 33.6975 4.46239 33.4747 4.31549C33.2519 4.1686 32.9909 4.09037 32.7241 4.09051H28.6336V1.3635C28.6336 1.00188 28.4899 0.655068 28.2342 0.399361C27.9785 0.143655 27.6317 0 27.2701 0H5.454V2.72701H25.9066V19.8472C25.2853 20.2079 24.7415 20.6882 24.3067 21.2601C23.8719 21.832 23.5546 22.4844 23.3732 23.1796H14.8049C14.473 21.8943 13.6838 20.7741 12.5851 20.0291C11.4864 19.284 10.1537 18.9653 8.83686 19.1325C7.51997 19.2998 6.30928 19.9416 5.43175 20.9377C4.55421 21.9337 4.07007 23.2156 4.07007 24.5431C4.07007 25.8706 4.55421 27.1525 5.43175 28.1485C6.30928 29.1446 7.51997 29.7864 8.83686 29.9536C10.1537 30.1209 11.4864 29.8021 12.5851 29.0571C13.6838 28.3121 14.473 27.1919 14.8049 25.9066H23.3732C23.6698 27.0768 24.3481 28.1147 25.3009 28.8561C26.2536 29.5975 27.4264 30 28.6336 30C29.8408 30 31.0135 29.5975 31.9663 28.8561C32.919 28.1147 33.5974 27.0768 33.894 25.9066H36.8146C37.1762 25.9066 37.523 25.7629 37.7788 25.5072C38.0345 25.2515 38.1781 24.9047 38.1781 24.5431V14.9985C38.1782 14.8138 38.1406 14.631 38.0677 14.4613ZM9.54452 27.2701C9.00516 27.2701 8.47793 27.1102 8.02947 26.8105C7.58102 26.5109 7.23149 26.085 7.02509 25.5867C6.81869 25.0884 6.76468 24.5401 6.86991 24.0111C6.97513 23.4821 7.23485 22.9962 7.61623 22.6148C7.99761 22.2334 8.48352 21.9737 9.0125 21.8685C9.54149 21.7632 10.0898 21.8173 10.5881 22.0237C11.0864 22.2301 11.5123 22.5796 11.8119 23.028C12.1116 23.4765 12.2715 24.0037 12.2715 24.5431C12.2708 25.2661 11.9833 25.9593 11.472 26.4706C10.9607 26.9818 10.2675 27.2694 9.54452 27.2701ZM28.6336 6.81752H31.8242L34.7475 13.635H28.6336V6.81752ZM28.6336 27.2701C28.0942 27.2701 27.567 27.1102 27.1185 26.8105C26.6701 26.5109 26.3206 26.085 26.1142 25.5867C25.9078 25.0884 25.8537 24.5401 25.959 24.0111C26.0642 23.4821 26.3239 22.9962 26.7053 22.6148C27.0867 22.2334 27.5726 21.9737 28.1016 21.8685C28.6306 21.7632 29.1789 21.8173 29.6772 22.0237C30.1755 22.2301 30.6014 22.5796 30.901 23.028C31.2007 23.4765 31.3606 24.0037 31.3606 24.5431C31.3599 25.2661 31.0723 25.9593 30.5611 26.4706C30.0498 26.9818 29.3566 27.2694 28.6336 27.2701ZM35.4511 23.1796H33.894C33.5936 22.0116 32.9142 20.9764 31.9622 20.2361C31.0102 19.4959 29.8395 19.0924 28.6336 19.0891V16.3621H35.4511V23.1796Z" fill="white"/>
</svg>
