<svg width="28" height="22" viewBox="0 0 28 22" fill="none" xmlns="http://www.w3.org/2000/svg">
<path d="M27.0595 2.61164C26.0461 3.0599 24.9715 3.3543 23.8711 3.48509C25.03 2.79102 25.8971 1.69935 26.3109 0.413426C25.2224 1.06121 24.029 1.51519 22.7866 1.76076C21.9511 0.866846 20.8437 0.273998 19.6365 0.0743819C18.4294 -0.125234 17.1901 0.0795672 16.1113 0.656946C15.0325 1.23433 14.1748 2.15193 13.6713 3.26711C13.1678 4.38229 13.0469 5.63257 13.3273 6.82356C11.1197 6.7131 8.96007 6.13957 6.98854 5.1402C5.01702 4.14083 3.27773 2.73797 1.88362 1.02271C1.3902 1.87021 1.13091 2.83362 1.13229 3.81429C1.13229 5.73905 2.11326 7.43948 3.6013 8.43505C2.71991 8.40725 1.85793 8.16923 1.08716 7.74081V7.80851C1.08712 9.09063 1.53056 10.3333 2.34228 11.3257C3.154 12.3182 4.28401 12.9993 5.54067 13.2536C4.7225 13.4756 3.86452 13.5082 3.03184 13.3492C3.38616 14.4528 4.0768 15.4179 5.00704 16.1094C5.93728 16.8009 7.06051 17.1841 8.21941 17.2053C7.06768 18.1099 5.74892 18.7786 4.33856 19.1731C2.92821 19.5676 1.45391 19.6802 0 19.5044C2.53767 21.1363 5.49169 22.0027 8.50879 22C18.722 22 24.3051 13.5403 24.3051 6.20365C24.3051 5.96471 24.2998 5.72312 24.2892 5.48551C25.3756 4.70015 26.3132 3.72742 27.0582 2.61297" fill="#0B4A72"/>
</svg>
