<svg width="38" height="26" viewBox="0 0 38 26" fill="none" xmlns="http://www.w3.org/2000/svg">
<path d="M21.6669 19.7777V16.2222M21.6669 16.2222V12.6666M21.6669 16.2222H25.2224M21.6669 16.2222H18.1113M2.11135 2L2.57535 2.16356C4.89001 2.976 6.04734 3.38311 6.70867 4.352C7.37 5.32088 7.37 6.60621 7.37 9.17865V14.0178C7.37 19.248 7.482 20.9724 9.02333 22.5973C10.5629 24.2222 13.0411 24.2222 18.0011 24.2222H19.8891M27.4269 24.2222C30.202 24.2222 31.5904 24.2222 32.5717 23.4222C33.5513 22.6222 33.8322 21.264 34.3922 18.5457L35.2811 14.2364C35.898 11.1431 36.2055 9.59821 35.4162 8.57243C34.6286 7.54666 31.9317 7.54666 28.9362 7.54666H18.154M7.37 7.54666H11.0002" stroke="white" stroke-width="2.5" stroke-linecap="round"/>
</svg>
