<svg width="28" height="21" viewBox="0 0 28 21" fill="none" xmlns="http://www.w3.org/2000/svg">
<path d="M26 0.5H2C1.46957 0.5 0.960859 0.710714 0.585786 1.08579C0.210714 1.46086 0 1.96957 0 2.5V18.5C0 19.0304 0.210714 19.5391 0.585786 19.9142C0.960859 20.2893 1.46957 20.5 2 20.5H26C26.5304 20.5 27.0391 20.2893 27.4142 19.9142C27.7893 19.5391 28 19.0304 28 18.5V2.5C28 1.96957 27.7893 1.46086 27.4142 1.08579C27.0391 0.710714 26.5304 0.5 26 0.5ZM23.8 2.5L14 9.28L4.2 2.5H23.8ZM2 18.5V3.41L13.43 11.32C13.5974 11.4361 13.7963 11.4984 14 11.4984C14.2037 11.4984 14.4026 11.4361 14.57 11.32L26 3.41V18.5H2Z" fill="#0B4A72"/>
</svg>
