<svg width="15" height="26" viewBox="0 0 15 26" fill="none" xmlns="http://www.w3.org/2000/svg">
<path d="M14.4264 25.4179C14.7937 25.0526 15 24.5573 15 24.0408C15 23.5243 14.7937 23.0289 14.4264 22.6637L4.72885 13.0219L14.4264 3.38011C14.7833 3.01275 14.9807 2.52072 14.9763 2.01001C14.9718 1.49929 14.7658 1.01075 14.4025 0.649606C14.0393 0.288461 13.5479 0.0836118 13.0343 0.0791754C12.5206 0.074737 12.0257 0.271068 11.6562 0.625881L0.573597 11.6448C0.206323 12.01 -5.89352e-07 12.5054 -5.66775e-07 13.0219C-5.44198e-07 13.5384 0.206323 14.0337 0.573598 14.399L11.6562 25.4179C12.0236 25.7831 12.5218 25.9882 13.0413 25.9882C13.5608 25.9882 14.059 25.7831 14.4264 25.4179Z" fill="white"/>
</svg>
