<svg width="24" height="9" viewBox="0 0 24 9" fill="none" xmlns="http://www.w3.org/2000/svg">
<path d="M4.00002 2.22217C4.70726 2.22217 5.38554 2.50312 5.88563 3.00322C6.38573 3.50331 6.66668 4.18159 6.66668 4.88883C6.66668 5.59607 6.38573 6.27435 5.88563 6.77444C5.38554 7.27454 4.70726 7.55549 4.00002 7.55549C3.29278 7.55549 2.6145 7.27454 2.11441 6.77444C1.61431 6.27435 1.33336 5.59607 1.33336 4.88883C1.33336 4.18159 1.61431 3.50331 2.11441 3.00322C2.6145 2.50312 3.29278 2.22217 4.00002 2.22217ZM20 2.22217C20.7072 2.22217 21.3855 2.50312 21.8856 3.00322C22.3857 3.50331 22.6666 4.18159 22.6666 4.88883C22.6666 5.59607 22.3857 6.27435 21.8856 6.77444C21.3855 7.27454 20.7072 7.55549 20 7.55549C19.2927 7.55549 18.6145 7.27454 18.1144 6.77444C17.6143 6.27435 17.3333 5.59607 17.3333 4.88883C17.3333 4.18159 17.6143 3.50331 18.1144 3.00322C18.6145 2.50312 19.2927 2.22217 20 2.22217Z" stroke="white" stroke-width="2.5"/>
</svg>
