<svg width="16" height="26" viewBox="0 0 16 26" fill="none" xmlns="http://www.w3.org/2000/svg">
<path d="M1.50365 0.570147C1.13638 0.935419 0.930054 1.43077 0.930054 1.94726C0.930054 2.46376 1.13638 2.95911 1.50365 3.32438L11.2012 12.9662L1.50365 22.6079C1.14679 22.9753 0.94932 23.4673 0.953783 23.978C0.958247 24.4887 1.16428 24.9773 1.52752 25.3384C1.89075 25.6996 2.38212 25.9044 2.89579 25.9089C3.40946 25.9133 3.90433 25.717 4.27382 25.3622L15.3565 14.3433C15.7237 13.978 15.9301 13.4826 15.9301 12.9662C15.9301 12.4497 15.7237 11.9543 15.3565 11.589L4.27382 0.570147C3.90643 0.204984 3.40822 -0.000152439 2.88874 -0.000152432C2.36925 -0.000152426 1.87104 0.204984 1.50365 0.570147Z" fill="white"/>
</svg>
