<svg width="30" height="30" viewBox="0 0 30 30" fill="none" xmlns="http://www.w3.org/2000/svg">
<path d="M29 15.0001C29 13.1616 28.6379 11.3411 27.9343 9.64249C27.2307 7.94392 26.1995 6.40056 24.8995 5.10053C22.2739 2.47501 18.713 1 14.9999 0.999999M23.6153 15.0001C23.6153 12.7151 22.7076 10.5238 21.0919 8.90806C19.4762 7.29235 17.2849 6.38465 14.9999 6.38465M1.92595 13.9447C1.20699 12.8281 0.891846 11.4991 1.03291 10.1786C1.17397 8.85813 1.76274 7.62569 2.70134 6.68619L3.51981 5.86773C3.88676 5.5047 4.3821 5.30108 4.89828 5.30108C5.41446 5.30108 5.9098 5.5047 6.27675 5.86773L9.70139 9.3139C10.0631 9.67719 10.2662 10.169 10.2662 10.6816C10.2662 11.1943 10.0631 11.686 9.70139 12.0493C9.33837 12.4163 9.13475 12.9116 9.13475 13.4278C9.13475 13.944 9.33837 14.4393 9.70139 14.8063L15.1937 20.2986C15.5607 20.6616 16.056 20.8652 16.5722 20.8652C17.0884 20.8652 17.5837 20.6616 17.9507 20.2986C18.314 19.9369 18.8057 19.7338 19.3184 19.7338C19.831 19.7338 20.3228 19.9369 20.6861 20.2986L24.1323 23.6155C24.4953 23.9825 24.6989 24.4778 24.6989 24.994C24.6989 25.5102 24.4953 26.0055 24.1323 26.3725L23.3138 27.191C22.3876 28.1464 21.1617 28.7553 19.8407 28.916C18.5197 29.0767 17.1836 28.7795 16.0553 28.074C10.4794 24.3183 5.68166 19.5206 1.92595 13.9447Z" stroke="#0B4A72" stroke-width="2" stroke-linecap="round" stroke-linejoin="round"/>
</svg>
