<svg width="24" height="20" viewBox="0 0 24 20" fill="none" xmlns="http://www.w3.org/2000/svg">
<path d="M16.5996 0C14.5906 0 12.8077 0.792981 11.5997 2.15595C10.3917 0.792981 8.60878 0 6.59983 0C4.8501 0.00211705 3.17264 0.698135 1.93538 1.93539C0.698135 3.17264 0.00211704 4.85011 0 6.59984C0 13.8337 10.5807 19.6135 11.0307 19.8565C11.2056 19.9507 11.4011 20 11.5997 20C11.7983 20 11.9938 19.9507 12.1687 19.8565C12.6187 19.6135 23.1994 13.8337 23.1994 6.59984C23.1973 4.85011 22.5013 3.17264 21.264 1.93539C20.0268 0.698135 18.3493 0.00211705 16.5996 0ZM16.0506 14.2357C14.6579 15.4175 13.1691 16.4811 11.5997 17.4156C10.0303 16.4811 8.54152 15.4175 7.14882 14.2357C4.98187 12.3767 2.39994 9.54177 2.39994 6.59984C2.39994 5.48596 2.84243 4.4177 3.63006 3.63006C4.41769 2.84243 5.48595 2.39994 6.59983 2.39994C8.37979 2.39994 9.86975 3.33992 10.4887 4.85388C10.5788 5.07459 10.7326 5.26345 10.9305 5.3964C11.1283 5.52935 11.3613 5.60035 11.5997 5.60035C11.8381 5.60035 12.0711 5.52935 12.2689 5.3964C12.4668 5.26345 12.6206 5.07459 12.7107 4.85388C13.3297 3.33992 14.8196 2.39994 16.5996 2.39994C17.7135 2.39994 18.7817 2.84243 19.5694 3.63006C20.357 4.4177 20.7995 5.48596 20.7995 6.59984C20.7995 9.54177 18.2175 12.3767 16.0506 14.2357Z" fill="black"/>
</svg>
