<svg width="23" height="22" viewBox="0 0 23 22" fill="none" xmlns="http://www.w3.org/2000/svg">
<path d="M12.2457 0.00135339C13.0484 -0.00172675 13.8511 0.0063405 14.6535 0.0255526L14.8669 0.0332524C15.1133 0.0420521 15.3564 0.0530516 15.6501 0.0662512C16.8204 0.121249 17.619 0.306043 18.3197 0.577734C19.0457 0.857125 19.6573 1.23551 20.2688 1.84709C20.828 2.39664 21.2608 3.06139 21.5371 3.79512C21.8088 4.4958 21.9936 5.29547 22.0486 6.46583C22.0618 6.75842 22.0728 7.00262 22.0816 7.24901L22.0882 7.4624C22.1077 8.26448 22.1162 9.0668 22.1135 9.86912L22.1146 10.6897V12.1306C22.1173 12.9333 22.1088 13.736 22.0893 14.5385L22.0827 14.7519C22.0739 14.9982 22.0629 15.2413 22.0497 15.535C21.9947 16.7054 21.8077 17.504 21.5371 18.2046C21.2617 18.9391 20.8288 19.6044 20.2688 20.1538C19.7188 20.7129 19.0537 21.1457 18.3197 21.422C17.619 21.6937 16.8204 21.8785 15.6501 21.9335C15.3564 21.9467 15.1133 21.9577 14.8669 21.9665L14.6535 21.9731C13.8511 21.9927 13.0484 22.0011 12.2457 21.9984L11.4251 21.9995H9.98528C9.1826 22.0022 8.37992 21.9938 7.57747 21.9742L7.36407 21.9676C7.10295 21.9581 6.84189 21.9471 6.5809 21.9346C5.41054 21.8796 4.61197 21.6926 3.91019 21.422C3.17617 21.1463 2.5113 20.7135 1.96216 20.1538C1.40233 19.6041 0.969137 18.9389 0.6928 18.2046C0.421109 17.504 0.236316 16.7054 0.181317 15.535C0.169067 15.274 0.158067 15.013 0.148319 14.7519L0.142819 14.5385C0.12254 13.736 0.113372 12.9333 0.11532 12.1306V9.86912C0.11225 9.06681 0.120317 8.26449 0.139519 7.4624L0.147219 7.24901C0.156018 7.00262 0.167018 6.75842 0.180218 6.46583C0.235216 5.29437 0.420009 4.4969 0.6917 3.79512C0.968201 3.06103 1.40224 2.39646 1.96326 1.84819C2.51202 1.28804 3.17647 0.854454 3.91019 0.577734C4.61197 0.306043 5.40944 0.121249 6.5809 0.0662512L7.36407 0.0332524L7.57747 0.0277527C8.37954 0.00748346 9.18186 -0.00168388 9.98418 0.000253506L12.2457 0.00135339ZM11.1149 5.50007C9.6563 5.50007 8.25741 6.07951 7.22599 7.11092C6.19458 8.14234 5.61513 9.54124 5.61513 10.9999C5.61513 12.4585 6.19458 13.8574 7.22599 14.8888C8.25741 15.9202 9.6563 16.4997 11.1149 16.4997C12.5736 16.4997 13.9725 15.9202 15.0039 14.8888C16.0353 13.8574 16.6148 12.4585 16.6148 10.9999C16.6148 9.54124 16.0353 8.14234 15.0039 7.11092C13.9725 6.07951 12.5736 5.50007 11.1149 5.50007ZM11.1149 7.69999C11.5483 7.69992 11.9774 7.7852 12.3778 7.95097C12.7782 8.11674 13.142 8.35975 13.4485 8.66612C13.755 8.97249 13.9981 9.33623 14.164 9.73656C14.3299 10.1369 14.4153 10.566 14.4154 10.9993C14.4155 11.4327 14.3302 11.8618 14.1644 12.2622C13.9986 12.6626 13.7556 13.0264 13.4493 13.3329C13.1429 13.6393 12.7792 13.8825 12.3788 14.0484C11.9785 14.2143 11.5494 14.2997 11.116 14.2998C10.2409 14.2998 9.40152 13.9521 8.78267 13.3333C8.16382 12.7144 7.81616 11.8751 7.81616 10.9999C7.81616 10.1247 8.16382 9.28535 8.78267 8.66651C9.40152 8.04766 10.2409 7.69999 11.116 7.69999M16.8908 3.85012C16.536 3.86433 16.2004 4.01528 15.9543 4.27138C15.7083 4.52747 15.5709 4.86884 15.5709 5.22398C15.5709 5.57912 15.7083 5.92048 15.9543 6.17658C16.2004 6.43267 16.536 6.58363 16.8908 6.59783C17.2555 6.59783 17.6052 6.45297 17.8631 6.19511C18.1209 5.93726 18.2658 5.58754 18.2658 5.22288C18.2658 4.85822 18.1209 4.50849 17.8631 4.25064C17.6052 3.99278 17.2555 3.84792 16.8908 3.84792" fill="#0B4A72"/>
</svg>
