<svg width="32" height="32" viewBox="0 0 32 32" fill="none" xmlns="http://www.w3.org/2000/svg">
<path d="M18.9298 1.07967C18.1121 0.382774 17.073 0 15.9986 0C14.9243 0 13.8851 0.382774 13.0674 1.07967L11.037 2.81037C10.7958 3.01609 10.4959 3.14049 10.1799 3.16585L7.52133 3.37672C6.45042 3.46213 5.44496 3.92629 4.68531 4.68595C3.92565 5.4456 3.46149 6.45106 3.37608 7.52197L3.1652 10.182C3.13942 10.4982 3.01449 10.7981 2.80822 11.0391L1.07902 13.0696C0.382532 13.8871 0 14.926 0 16C0 17.074 0.382532 18.1129 1.07902 18.9304L2.80822 20.9624C3.01394 21.2036 3.13834 21.5035 3.1637 21.8195L3.37608 24.478C3.46149 25.5489 3.92565 26.5544 4.68531 27.3141C5.44496 28.0737 6.45042 28.5379 7.52133 28.6233L10.1799 28.8342C10.4966 28.8596 10.7971 28.9846 11.0385 29.1911L13.0674 30.9203C13.8851 31.6172 14.9243 32 15.9986 32C17.073 32 18.1121 31.6172 18.9298 30.9203L20.9603 29.1911C21.2018 28.9851 21.5023 28.8607 21.8188 28.8357L24.4774 28.6233C25.5483 28.5379 26.5538 28.0737 27.3134 27.3141C28.0731 26.5544 28.5372 25.5489 28.6226 24.478L28.8335 21.8195C28.8586 21.503 28.983 21.2025 29.189 20.9609L30.9197 18.9319C31.6166 18.1143 31.9994 17.0751 31.9994 16.0008C31.9994 14.9264 31.6166 13.8872 30.9197 13.0696L29.189 11.0391C28.983 10.7975 28.8586 10.497 28.8335 10.1805L28.6226 7.52197C28.5372 6.45106 28.0731 5.4456 27.3134 4.68595C26.5538 3.92629 25.5483 3.46213 24.4774 3.37672L21.8173 3.16585C21.5013 3.14049 21.2014 3.01609 20.9603 2.81037L18.9298 1.07967ZM20.2583 9.60966L22.3897 11.7395L11.7389 22.3918L9.60751 20.2605L20.2583 9.60966ZM13.3355 13.3377C13.1271 13.5535 12.8778 13.7256 12.6021 13.844C12.3265 13.9624 12.03 14.0247 11.73 14.0274C11.43 14.03 11.1325 13.9728 10.8548 13.8592C10.5771 13.7456 10.3249 13.5778 10.1127 13.3657C9.90058 13.1535 9.73282 12.9013 9.61921 12.6236C9.50561 12.3459 9.44844 12.0484 9.45105 11.7484C9.45365 11.4484 9.51598 11.1519 9.6344 10.8763C9.75281 10.6006 9.92493 10.3513 10.1407 10.1429C10.5669 9.73131 11.1376 9.50358 11.73 9.50872C12.3224 9.51387 12.8891 9.75149 13.308 10.1704C13.7269 10.5893 13.9645 11.156 13.9697 11.7484C13.9748 12.3408 13.7471 12.9115 13.3355 13.3377ZM18.6617 21.8586C18.4422 21.6512 18.2666 21.4018 18.1452 21.1253C18.0238 20.8488 17.959 20.5507 17.9547 20.2488C17.9504 19.9468 18.0068 19.647 18.1203 19.3672C18.2339 19.0874 18.4024 18.8331 18.6159 18.6196C18.8294 18.406 19.0835 18.2373 19.3633 18.1236C19.6431 18.0099 19.9428 17.9535 20.2448 17.9576C20.5467 17.9618 20.8448 18.0264 21.1214 18.1477C21.398 18.269 21.6474 18.4445 21.855 18.6638C22.2541 19.0921 22.4713 19.6586 22.461 20.244C22.4507 20.8293 22.2136 21.3878 21.7996 21.8018C21.3856 22.2157 20.8272 22.4528 20.2418 22.4632C19.6565 22.4735 19.09 22.2562 18.6617 21.8571" fill="white"/>
</svg>
